<?xml version="1.0" encoding="utf-8"?>
<!-- Generator: Adobe Illustrator 16.0.0, SVG Export Plug-In . SVG Version: 6.00 Build 0)  -->
<!DOCTYPE svg PUBLIC "-//W3C//DTD SVG 1.1//EN" "http://www.w3.org/Graphics/SVG/1.1/DTD/svg11.dtd">
<svg version="1.1"
	 id="svg3025" xmlns:inkscape="http://www.inkscape.org/namespaces/inkscape" xmlns:sodipodi="http://sodipodi.sourceforge.net/DTD/sodipodi-0.dtd" xmlns:svg="http://www.w3.org/2000/svg" xmlns:rdf="http://www.w3.org/1999/02/22-rdf-syntax-ns#" xmlns:cc="http://creativecommons.org/ns#" xmlns:dc="http://purl.org/dc/elements/1.1/" sodipodi:docname="spinner_font_awesome.svg" inkscape:version="0.48.3.1 r9886"
	 xmlns="http://www.w3.org/2000/svg" xmlns:xlink="http://www.w3.org/1999/xlink" x="0px" y="0px" width="256px" height="256px"
	 viewBox="0 0 256 256" enable-background="new 0 0 256 256" xml:space="preserve">
<sodipodi:namedview  id="namedview3031" objecttolerance="10" bordercolor="#666666" borderopacity="1" pagecolor="#ffffff" gridtolerance="10" guidetolerance="10" showgrid="false" inkscape:zoom="0.13169643" inkscape:cx="896" inkscape:cy="896" inkscape:current-layer="svg3025" inkscape:window-maximized="0" inkscape:window-y="25" inkscape:window-x="0" inkscape:window-height="480" inkscape:window-width="640" inkscape:pageshadow="2" inkscape:pageopacity="0">
	</sodipodi:namedview>
<g id="g3027" transform="matrix(1,0,0,-1,121.49153,1315.7966)">
	<path id="path3029" inkscape:connector-curvature="0" d="M-33.279,1119.225c0-5.714-2.023-10.571-6.071-14.571
		c-4.047-4-8.881-6-14.5-6c-5.714,0-10.571,2-14.571,6s-6,8.857-6,14.571s2,10.571,6,14.571s8.857,6,14.571,6
		c5.619,0,10.453-2,14.5-6C-35.302,1129.797-33.279,1124.939-33.279,1119.225z M28.436,1091.797c0-5.047-1.786-9.357-5.357-12.928
		c-3.571-3.572-7.881-5.357-12.929-5.357c-5.047,0-9.357,1.785-12.929,5.357c-3.571,3.57-5.357,7.881-5.357,12.928
		c0,5.048,1.786,9.357,5.357,12.929c3.572,3.571,7.881,5.356,12.929,5.356c5.048,0,9.357-1.785,12.929-5.356
		S28.436,1096.844,28.436,1091.797z M-58.421,1183.225c0-6.286-2.238-11.667-6.714-16.144c-4.476-4.476-9.857-6.713-16.143-6.713
		c-6.286,0-11.667,2.237-16.143,6.713c-4.476,4.477-6.714,9.857-6.714,16.144c0,6.286,2.238,11.667,6.714,16.143
		c4.476,4.476,9.857,6.714,16.143,6.714c6.286,0,11.667-2.238,16.143-6.714C-60.66,1194.892-58.421,1189.511-58.421,1183.225z
		 M90.15,1119.225c0-4.381-1.571-8.144-4.714-11.286s-6.905-4.714-11.286-4.714s-8.143,1.571-11.286,4.714
		c-3.143,3.143-4.714,6.905-4.714,11.286s1.571,8.144,4.714,11.286c3.144,3.143,6.905,4.714,11.286,4.714s8.144-1.571,11.286-4.714
		S90.15,1123.606,90.15,1119.225z M-28.707,1247.225c0-6.953-2.453-12.881-7.357-17.786s-10.833-7.357-17.786-7.357
		c-6.952,0-12.881,2.453-17.786,7.357s-7.357,10.833-7.357,17.786s2.452,12.881,7.357,17.786s10.833,7.357,17.786,7.357
		c6.953,0,12.881-2.453,17.786-7.357S-28.707,1254.178-28.707,1247.225z M37.579,1274.654c0-7.619-2.667-14.095-8-19.429
		c-5.334-5.333-11.81-8-19.429-8s-14.095,2.667-19.429,8c-5.333,5.333-8,11.81-8,19.429c0,7.619,2.667,14.095,8,19.428
		c5.333,5.333,11.81,8,19.429,8s14.095-2.667,19.429-8C34.912,1288.749,37.579,1282.273,37.579,1274.654z M115.294,1183.225
		c0-3.81-1.334-7.048-4-9.714c-2.668-2.667-5.905-4-9.715-4s-7.048,1.333-9.715,4c-2.666,2.666-4,5.904-4,9.714s1.334,7.047,4,9.714
		c2.667,2.667,5.905,4,9.715,4s7.047-1.333,9.715-4C113.96,1190.273,115.294,1187.035,115.294,1183.225z M85.579,1247.225
		c0-3.143-1.119-5.833-3.357-8.071c-2.238-2.238-4.928-3.357-8.071-3.357c-3.143,0-5.833,1.119-8.071,3.357
		c-2.238,2.238-3.357,4.928-3.357,8.071s1.119,5.833,3.357,8.071c2.238,2.238,4.929,3.357,8.071,3.357
		c3.144,0,5.833-1.119,8.071-3.357C84.46,1253.059,85.579,1250.368,85.579,1247.225z"/>
</g>
</svg>
